P3
99 33
255
153 34  186 153 34  186 153 34  186 153 34  186 153 34  186 153 34  186 153 34  186 153 34  186 153 34  186 153 34  186 153 34  186 153 34  186 153 34  186 153 34  186 153 34  186 153 34  186 153 34  186 153 34  186 153 34  186 153 34  186 153 34  186 153 34  186 153 34  186 153 34  186 153 34  186 153 34  186 153 34  186 153 34  186 153 34  186 153 34  186 153 34  186 153 34  186 153 34  186 153 34  186 153 34  186 153 34  186 153 34  186 153 34  186 153 34  186 153 34  186 153 34  186 153 34  186 153 34  186 153 34  186 153 34  186 153 34  186 153 34  186 153 34  186 153 34  186 153 34  186 153 34  186 153 34  186 153 34  186 153 34  186 153 34  186 153 34  186 153 34  186 153 34  186 153 34  186 153 34  186 153 34  186 153 34  186 153 34  186 153 34  186 153 34  186 153 34  186 153 34  186 153 34  186 153 34  186 153 34  186 153 34  186 153 34  186 153 34  186 153 34  186 153 34  186 153 34  186 153 34  186 153 34  186 153 34  186 153 34  186 153 34  186 153 34  186 153 34  186 153 34  186 153 34  186 153 34  186 153 34  186 153 34  186 153 34  186 153 34  186 153 34  186 153 34  186 153 34  186 153 34  186 153 34  186 153 34  186 153 34  186 153 34  186 153 34  186 
153 34  186 153 34  186 153 34  186 153 34  186 153 34  186 153 34  186 153 34  186 153 34  186 153 34  186 153 34  186 153 34  186 153 34  186 153 34  186 153 34  186 153 34  186 153 34  186 153 34  186 153 34  186 153 34  186 153 34  186 153 34  186 153 34  186 153 34  186 153 34  186 153 34  186 153 34  186 153 34  186 153 34  186 153 34  186 153 34  186 153 34  186 153 34  186 153 34  186 153 34  186 153 34  186 153 34  186 153 34  186 153 34  186 153 34  186 153 34  186 153 34  186 153 34  186 153 34  186 153 34  186 153 34  186 153 34  186 153 34  186 153 34  186 153 34  186 153 34  186 153 34  186 153 34  186 153 34  186 153 34  186 153 34  186 153 34  186 153 34  186 153 34  186 153 34  186 153 34  186 153 34  186 153 34  186 153 34  186 153 34  186 153 34  186 153 34  186 153 34  186 153 34  186 153 34  186 153 34  186 153 34  186 153 34  186 153 34  186 153 34  186 153 34  186 153 34  186 153 34  186 153 34  186 153 34  186 153 34  186 153 34  186 153 34  186 153 34  186 153 34  186 153 34  186 153 34  186 153 34  186 153 34  186 153 34  186 153 34  186 153 34  186 153 34  186 153 34  186 153 34  186 153 34  186 153 34  186 153 34  186 153 34  186 153 34  186 
153 34  186 153 34  186 153 34  186 153 34  186 153 34  186 153 34  186 153 34  186 153 34  186 153 34  186 153 34  186 153 34  186 153 34  186 153 34  186 153 34  186 153 34  186 153 34  186 153 34  186 153 34  186 153 34  186 153 34  186 153 34  186 153 34  186 153 34  186 153 34  186 153 34  186 153 34  186 153 34  186 153 34  186 153 34  186 153 34  186 153 34  186 153 34  186 153 34  186 153 34  186 153 34  186 153 34  186 153 34  186 153 34  186 153 34  186 153 34  186 153 34  186 153 34  186 153 34  186 153 34  186 153 34  186 153 34  186 153 34  186 153 34  186 153 34  186 153 34  186 153 34  186 153 34  186 153 34  186 153 34  186 153 34  186 153 34  186 153 34  186 153 34  186 153 34  186 153 34  186 153 34  186 153 34  186 153 34  186 153 34  186 153 34  186 153 34  186 153 34  186 153 34  186 153 34  186 153 34  186 153 34  186 153 34  186 153 34  186 153 34  186 153 34  186 153 34  186 153 34  186 153 34  186 153 34  186 153 34  186 153 34  186 153 34  186 153 34  186 153 34  186 153 34  186 153 34  186 153 34  186 153 34  186 153 34  186 153 34  186 153 34  186 153 34  186 153 34  186 153 34  186 153 34  186 153 34  186 153 34  186 153 34  186 153 34  186 
153 34  186 153 34  186 153 34  186 153 34  186 153 34  186 153 34  186 153 34  186 153 34  186 153 34  186 153 34  186 153 34  186 153 34  186 153 34  186 153 34  186 153 34  186 153 34  186 153 34  186 153 34  186 153 34  186 153 34  186 153 34  186 153 34  186 153 34  186 153 34  186 153 34  186 153 34  186 153 34  186 153 34  186 153 34  186 153 34  186 153 34  186 153 34  186 153 34  186 153 34  186 153 34  186 153 34  186 153 34  186 153 34  186 153 34  186 153 34  186 153 34  186 153 34  186 153 34  186 153 34  186 153 34  186 153 34  186 153 34  186 153 34  186 153 34  186 153 34  186 153 34  186 153 34  186 153 34  186 153 34  186 153 34  186 153 34  186 153 34  186 153 34  186 153 34  186 153 34  186 153 34  186 153 34  186 153 34  186 153 34  186 153 34  186 153 34  186 153 34  186 153 34  186 153 34  186 153 34  186 153 34  186 153 34  186 153 34  186 153 34  186 153 34  186 153 34  186 153 34  186 153 34  186 153 34  186 153 34  186 153 34  186 153 34  186 153 34  186 153 34  186 153 34  186 153 34  186 153 34  186 153 34  186 153 34  186 153 34  186 153 34  186 153 34  186 153 34  186 153 34  186 153 34  186 153 34  186 153 34  186 153 34  186 153 34  186 
153 34  186 153 34  186 153 34  186 153 34  186 153 34  186 153 34  186 153 34  186 153 34  186 153 34  186 153 34  186 153 34  186 153 34  186 153 34  186 153 34  186 153 34  186 153 34  186 153 34  186 153 34  186 153 34  186 153 34  186 153 34  186 153 34  186 153 34  186 153 34  186 153 34  186 153 34  186 153 34  186 153 34  186 153 34  186 153 34  186 153 34  186 153 34  186 153 34  186 153 34  186 153 34  186 153 34  186 153 34  186 153 34  186 153 34  186 153 34  186 153 34  186 153 34  186 153 34  186 153 34  186 153 34  186 153 34  186 153 34  186 153 34  186 153 34  186 153 34  186 153 34  186 153 34  186 153 34  186 153 34  186 153 34  186 153 34  186 153 34  186 153 34  186 153 34  186 153 34  186 153 34  186 153 34  186 153 34  186 153 34  186 153 34  186 153 34  186 153 34  186 153 34  186 153 34  186 153 34  186 153 34  186 153 34  186 153 34  186 153 34  186 153 34  186 153 34  186 153 34  186 153 34  186 153 34  186 153 34  186 153 34  186 153 34  186 153 34  186 153 34  186 153 34  186 153 34  186 153 34  186 153 34  186 153 34  186 153 34  186 153 34  186 153 34  186 153 34  186 153 34  186 153 34  186 153 34  186 153 34  186 153 34  186 153 34  186 
153 34  186 153 34  186 153 34  186 153 34  186 153 34  186 153 34  186 153 34  186 153 34  186 153 34  186 153 34  186 153 34  186 153 34  186 153 34  186 153 34  186 153 34  186 153 34  186 153 34  186 153 34  186 153 34  186 153 34  186 153 34  186 153 34  186 153 34  186 153 34  186 153 34  186 153 34  186 153 34  186 153 34  186 153 34  186 153 34  186 153 34  186 153 34  186 153 34  186 153 34  186 153 34  186 153 34  186 153 34  186 153 34  186 153 34  186 153 34  186 153 34  186 153 34  186 153 34  186 153 34  186 153 34  186 153 34  186 153 34  186 153 34  186 153 34  186 153 34  186 153 34  186 153 34  186 153 34  186 153 34  186 153 34  186 153 34  186 153 34  186 153 34  186 153 34  186 153 34  186 153 34  186 153 34  186 153 34  186 153 34  186 153 34  186 153 34  186 153 34  186 153 34  186 153 34  186 153 34  186 153 34  186 153 34  186 153 34  186 153 34  186 153 34  186 153 34  186 153 34  186 153 34  186 153 34  186 153 34  186 153 34  186 153 34  186 153 34  186 153 34  186 153 34  186 153 34  186 153 34  186 153 34  186 153 34  186 153 34  186 153 34  186 153 34  186 153 34  186 153 34  186 153 34  186 153 34  186 153 34  186 153 34  186 153 34  186 
153 34  186 153 34  186 153 34  186 153 34  186 153 34  186 153 34  186 153 34  186 153 34  186 153 34  186 153 34  186 153 34  186 153 34  186 153 34  186 153 34  186 153 34  186 153 34  186 153 34  186 153 34  186 153 34  186 153 34  186 153 34  186 153 34  186 153 34  186 153 34  186 153 34  186 153 34  186 153 34  186 153 34  186 153 34  186 153 34  186 153 34  186 153 34  186 153 34  186 153 34  186 153 34  186 153 34  186 153 34  186 153 34  186 153 34  186 153 34  186 153 34  186 153 34  186 153 34  186 153 34  186 153 34  186 153 34  186 153 34  186 153 34  186 153 34  186 153 34  186 153 34  186 153 34  186 153 34  186 153 34  186 153 34  186 153 34  186 153 34  186 153 34  186 153 34  186 153 34  186 153 34  186 153 34  186 153 34  186 153 34  186 153 34  186 153 34  186 153 34  186 153 34  186 153 34  186 153 34  186 153 34  186 153 34  186 153 34  186 153 34  186 153 34  186 153 34  186 153 34  186 153 34  186 153 34  186 153 34  186 153 34  186 153 34  186 153 34  186 153 34  186 153 34  186 153 34  186 153 34  186 153 34  186 153 34  186 153 34  186 153 34  186 153 34  186 153 34  186 153 34  186 153 34  186 153 34  186 153 34  186 153 34  186 153 34  186 
153 34  186 153 34  186 153 34  186 153 34  186 153 34  186 153 34  186 153 34  186 153 34  186 153 34  186 153 34  186 153 34  186 153 34  186 153 34  186 153 34  186 153 34  186 153 34  186 153 34  186 153 34  186 153 34  186 153 34  186 153 34  186 153 34  186 153 34  186 153 34  186 153 34  186 153 34  186 153 34  186 153 34  186 153 34  186 153 34  186 153 34  186 153 34  186 153 34  186 153 34  186 153 34  186 153 34  186 153 34  186 153 34  186 153 34  186 153 34  186 153 34  186 153 34  186 153 34  186 153 34  186 153 34  186 153 34  186 153 34  186 153 34  186 153 34  186 153 34  186 153 34  186 153 34  186 153 34  186 153 34  186 153 34  186 153 34  186 153 34  186 153 34  186 153 34  186 153 34  186 153 34  186 153 34  186 153 34  186 153 34  186 153 34  186 153 34  186 153 34  186 153 34  186 153 34  186 153 34  186 153 34  186 153 34  186 153 34  186 153 34  186 153 34  186 153 34  186 153 34  186 153 34  186 153 34  186 153 34  186 153 34  186 153 34  186 153 34  186 153 34  186 153 34  186 153 34  186 153 34  186 153 34  186 153 34  186 153 34  186 153 34  186 153 34  186 153 34  186 153 34  186 153 34  186 153 34  186 153 34  186 153 34  186 153 34  186 
153 34  186 153 34  186 153 34  186 153 34  186 153 34  186 153 34  186 153 34  186 153 34  186 153 34  186 153 34  186 153 34  186 153 34  186 153 34  186 153 34  186 153 34  186 153 34  186 153 34  186 153 34  186 153 34  186 153 34  186 153 34  186 153 34  186 153 34  186 153 34  186 153 34  186 153 34  186 153 34  186 153 34  186 153 34  186 153 34  186 153 34  186 153 34  186 153 34  186 153 34  186 153 34  186 153 34  186 153 34  186 153 34  186 153 34  186 153 34  186 153 34  186 153 34  186 153 34  186 153 34  186 153 34  186 153 34  186 153 34  186 153 34  186 153 34  186 153 34  186 153 34  186 153 34  186 153 34  186 153 34  186 153 34  186 153 34  186 153 34  186 153 34  186 153 34  186 153 34  186 153 34  186 153 34  186 153 34  186 153 34  186 153 34  186 153 34  186 153 34  186 153 34  186 153 34  186 153 34  186 153 34  186 153 34  186 153 34  186 153 34  186 153 34  186 153 34  186 153 34  186 153 34  186 153 34  186 153 34  186 153 34  186 153 34  186 153 34  186 153 34  186 153 34  186 153 34  186 153 34  186 153 34  186 153 34  186 153 34  186 153 34  186 153 34  186 153 34  186 153 34  186 153 34  186 153 34  186 153 34  186 153 34  186 153 34  186 
153 34  186 153 34  186 153 34  186 153 34  186 153 34  186 153 34  186 153 34  186 153 34  186 153 34  186 153 34  186 153 34  186 153 34  186 153 34  186 153 34  186 153 34  186 153 34  186 153 34  186 153 34  186 153 34  186 153 34  186 153 34  186 153 34  186 153 34  186 153 34  186 153 34  186 153 34  186 153 34  186 153 34  186 153 34  186 153 34  186 153 34  186 153 34  186 153 34  186 153 34  186 153 34  186 153 34  186 153 34  186 153 34  186 153 34  186 153 34  186 153 34  186 153 34  186 153 34  186 153 34  186 153 34  186 153 34  186 153 34  186 153 34  186 153 34  186 153 34  186 153 34  186 153 34  186 153 34  186 153 34  186 153 34  186 153 34  186 153 34  186 153 34  186 153 34  186 153 34  186 153 34  186 153 34  186 153 34  186 153 34  186 153 34  186 153 34  186 153 34  186 153 34  186 153 34  186 153 34  186 153 34  186 153 34  186 153 34  186 153 34  186 153 34  186 153 34  186 153 34  186 153 34  186 153 34  186 153 34  186 153 34  186 153 34  186 153 34  186 153 34  186 153 34  186 153 34  186 153 34  186 153 34  186 153 34  186 153 34  186 153 34  186 153 34  186 153 34  186 153 34  186 153 34  186 153 34  186 153 34  186 153 34  186 153 34  186 
153 34  186 153 34  186 153 34  186 153 34  186 153 34  186 153 34  186 153 34  186 153 34  186 153 34  186 153 34  186 153 34  186 153 34  186 153 34  186 153 34  186 153 34  186 153 34  186 153 34  186 153 34  186 153 34  186 153 34  186 153 34  186 153 34  186 153 34  186 153 34  186 153 34  186 153 34  186 153 34  186 153 34  186 153 34  186 153 34  186 153 34  186 153 34  186 153 34  186 153 34  186 153 34  186 153 34  186 153 34  186 153 34  186 153 34  186 153 34  186 153 34  186 153 34  186 153 34  186 153 34  186 153 34  186 153 34  186 153 34  186 153 34  186 153 34  186 153 34  186 153 34  186 153 34  186 153 34  186 153 34  186 153 34  186 153 34  186 153 34  186 153 34  186 153 34  186 153 34  186 153 34  186 153 34  186 153 34  186 153 34  186 153 34  186 153 34  186 153 34  186 153 34  186 153 34  186 153 34  186 153 34  186 153 34  186 153 34  186 153 34  186 153 34  186 153 34  186 153 34  186 153 34  186 153 34  186 153 34  186 153 34  186 153 34  186 153 34  186 153 34  186 153 34  186 153 34  186 153 34  186 153 34  186 153 34  186 153 34  186 153 34  186 153 34  186 153 34  186 153 34  186 153 34  186 153 34  186 153 34  186 153 34  186 153 34  186 
153 34  186 153 34  186 153 34  186 153 34  186 153 34  186 153 34  186 153 34  186 153 34  186 153 34  186 153 34  186 153 34  186 153 34  186 153 34  186 153 34  186 153 34  186 153 34  186 153 34  186 153 34  186 153 34  186 153 34  186 153 34  186 153 34  186 153 34  186 153 34  186 153 34  186 153 34  186 153 34  186 153 34  186 153 34  186 153 34  186 153 34  186 153 34  186 153 34  186 153 34  186 153 34  186 153 34  186 153 34  186 153 34  186 153 34  186 153 34  186 153 34  186 153 34  186 153 34  186 153 34  186 153 34  186 153 34  186 153 34  186 153 34  186 153 34  186 153 34  186 153 34  186 153 34  186 153 34  186 153 34  186 153 34  186 153 34  186 153 34  186 153 34  186 153 34  186 153 34  186 153 34  186 153 34  186 153 34  186 153 34  186 153 34  186 153 34  186 153 34  186 153 34  186 153 34  186 153 34  186 153 34  186 153 34  186 153 34  186 153 34  186 153 34  186 153 34  186 153 34  186 153 34  186 153 34  186 153 34  186 153 34  186 153 34  186 153 34  186 153 34  186 153 34  186 153 34  186 153 34  186 153 34  186 153 34  186 153 34  186 153 34  186 153 34  186 153 34  186 153 34  186 153 34  186 153 34  186 153 34  186 153 34  186 153 34  186 
153 34  186 153 34  186 153 34  186 153 34  186 153 34  186 153 34  186 153 34  186 153 34  186 153 34  186 153 34  186 153 34  186 153 34  186 153 34  186 153 34  186 153 34  186 153 34  186 153 34  186 153 34  186 153 34  186 153 34  186 153 34  186 153 34  186 153 34  186 153 34  186 153 34  186 153 34  186 153 34  186 153 34  186 153 34  186 153 34  186 153 34  186 153 34  186 153 34  186 153 34  186 153 34  186 153 34  186 153 34  186 153 34  186 153 34  186 153 34  186 153 34  186 153 34  186 153 34  186 153 34  186 153 34  186 153 34  186 153 34  186 153 34  186 153 34  186 153 34  186 153 34  186 153 34  186 153 34  186 153 34  186 153 34  186 153 34  186 153 34  186 153 34  186 153 34  186 153 34  186 153 34  186 153 34  186 153 34  186 153 34  186 153 34  186 153 34  186 153 34  186 153 34  186 153 34  186 153 34  186 153 34  186 153 34  186 153 34  186 153 34  186 153 34  186 153 34  186 153 34  186 153 34  186 153 34  186 153 34  186 153 34  186 153 34  186 153 34  186 153 34  186 153 34  186 153 34  186 153 34  186 153 34  186 153 34  186 153 34  186 153 34  186 153 34  186 153 34  186 153 34  186 153 34  186 153 34  186 153 34  186 153 34  186 153 34  186 
153 34  186 153 34  186 153 34  186 153 34  186 153 34  186 153 34  186 153 34  186 153 34  186 153 34  186 153 34  186 153 34  186 153 34  186 153 34  186 153 34  186 153 34  186 153 34  186 153 34  186 153 34  186 153 34  186 153 34  186 153 34  186 153 34  186 153 34  186 153 34  186 153 34  186 153 34  186 153 34  186 153 34  186 153 34  186 153 34  186 153 34  186 153 34  186 153 34  186 153 34  186 153 34  186 153 34  186 153 34  186 153 34  186 153 34  186 153 34  186 153 34  186 153 34  186 153 34  186 153 34  186 153 34  186 153 34  186 153 34  186 153 34  186 153 34  186 153 34  186 153 34  186 153 34  186 153 34  186 153 34  186 153 34  186 153 34  186 153 34  186 153 34  186 153 34  186 153 34  186 153 34  186 153 34  186 153 34  186 153 34  186 153 34  186 153 34  186 153 34  186 153 34  186 153 34  186 153 34  186 153 34  186 153 34  186 153 34  186 153 34  186 153 34  186 153 34  186 153 34  186 153 34  186 153 34  186 153 34  186 153 34  186 153 34  186 153 34  186 153 34  186 153 34  186 153 34  186 153 34  186 153 34  186 153 34  186 153 34  186 153 34  186 153 34  186 153 34  186 153 34  186 153 34  186 153 34  186 153 34  186 153 34  186 153 34  186 
153 34  186 153 34  186 153 34  186 153 34  186 153 34  186 153 34  186 153 34  186 153 34  186 153 34  186 153 34  186 153 34  186 153 34  186 153 34  186 153 34  186 153 34  186 153 34  186 153 34  186 153 34  186 153 34  186 153 34  186 153 34  186 153 34  186 153 34  186 153 34  186 153 34  186 153 34  186 153 34  186 153 34  186 153 34  186 153 34  186 153 34  186 153 34  186 153 34  186 153 34  186 153 34  186 153 34  186 153 34  186 153 34  186 153 34  186 153 34  186 153 34  186 153 34  186 153 34  186 153 34  186 153 34  186 153 34  186 153 34  186 153 34  186 153 34  186 153 34  186 153 34  186 153 34  186 153 34  186 153 34  186 153 34  186 153 34  186 153 34  186 153 34  186 153 34  186 153 34  186 153 34  186 153 34  186 153 34  186 153 34  186 153 34  186 153 34  186 153 34  186 153 34  186 153 34  186 153 34  186 153 34  186 153 34  186 153 34  186 153 34  186 153 34  186 153 34  186 153 34  186 153 34  186 153 34  186 153 34  186 153 34  186 153 34  186 153 34  186 153 34  186 153 34  186 153 34  186 153 34  186 153 34  186 153 34  186 153 34  186 153 34  186 153 34  186 153 34  186 153 34  186 153 34  186 153 34  186 153 34  186 153 34  186 153 34  186 
153 34  186 153 34  186 153 34  186 153 34  186 153 34  186 153 34  186 153 34  186 153 34  186 153 34  186 153 34  186 153 34  186 153 34  186 153 34  186 153 34  186 153 34  186 153 34  186 153 34  186 153 34  186 153 34  186 153 34  186 153 34  186 153 34  186 153 34  186 153 34  186 153 34  186 153 34  186 153 34  186 153 34  186 153 34  186 153 34  186 153 34  186 153 34  186 153 34  186 153 34  186 153 34  186 153 34  186 153 34  186 153 34  186 153 34  186 153 34  186 153 34  186 153 34  186 153 34  186 153 34  186 153 34  186 153 34  186 153 34  186 153 34  186 153 34  186 153 34  186 153 34  186 153 34  186 153 34  186 153 34  186 153 34  186 153 34  186 153 34  186 153 34  186 153 34  186 153 34  186 153 34  186 153 34  186 153 34  186 153 34  186 153 34  186 153 34  186 153 34  186 153 34  186 153 34  186 153 34  186 153 34  186 153 34  186 153 34  186 153 34  186 153 34  186 153 34  186 153 34  186 153 34  186 153 34  186 153 34  186 153 34  186 153 34  186 153 34  186 153 34  186 153 34  186 153 34  186 153 34  186 153 34  186 153 34  186 153 34  186 153 34  186 153 34  186 153 34  186 153 34  186 153 34  186 153 34  186 153 34  186 153 34  186 153 34  186 
153 34  186 153 34  186 153 34  186 153 34  186 153 34  186 153 34  186 153 34  186 153 34  186 153 34  186 153 34  186 153 34  186 153 34  186 153 34  186 153 34  186 153 34  186 153 34  186 153 34  186 153 34  186 153 34  186 153 34  186 153 34  186 153 34  186 153 34  186 153 34  186 153 34  186 153 34  186 153 34  186 153 34  186 153 34  186 153 34  186 153 34  186 153 34  186 153 34  186 153 34  186 153 34  186 153 34  186 153 34  186 153 34  186 153 34  186 153 34  186 153 34  186 153 34  186 153 34  186 153 34  186 153 34  186 153 34  186 153 34  186 153 34  186 153 34  186 153 34  186 153 34  186 153 34  186 153 34  186 153 34  186 153 34  186 153 34  186 153 34  186 153 34  186 153 34  186 153 34  186 153 34  186 153 34  186 153 34  186 153 34  186 153 34  186 153 34  186 153 34  186 153 34  186 153 34  186 153 34  186 153 34  186 153 34  186 153 34  186 153 34  186 153 34  186 153 34  186 153 34  186 153 34  186 153 34  186 153 34  186 153 34  186 153 34  186 153 34  186 153 34  186 153 34  186 153 34  186 153 34  186 153 34  186 153 34  186 153 34  186 153 34  186 153 34  186 153 34  186 153 34  186 153 34  186 153 34  186 153 34  186 153 34  186 153 34  186 
153 34  186 153 34  186 153 34  186 153 34  186 153 34  186 153 34  186 153 34  186 153 34  186 153 34  186 153 34  186 153 34  186 153 34  186 153 34  186 153 34  186 153 34  186 153 34  186 153 34  186 153 34  186 153 34  186 153 34  186 153 34  186 153 34  186 153 34  186 153 34  186 153 34  186 153 34  186 153 34  186 153 34  186 153 34  186 153 34  186 153 34  186 153 34  186 153 34  186 153 34  186 153 34  186 153 34  186 153 34  186 153 34  186 153 34  186 153 34  186 153 34  186 153 34  186 153 34  186 153 34  186 153 34  186 153 34  186 153 34  186 153 34  186 153 34  186 153 34  186 153 34  186 153 34  186 153 34  186 153 34  186 153 34  186 153 34  186 153 34  186 153 34  186 153 34  186 153 34  186 153 34  186 153 34  186 153 34  186 153 34  186 153 34  186 153 34  186 153 34  186 153 34  186 153 34  186 153 34  186 153 34  186 153 34  186 153 34  186 153 34  186 153 34  186 153 34  186 153 34  186 153 34  186 153 34  186 153 34  186 153 34  186 153 34  186 153 34  186 153 34  186 153 34  186 153 34  186 153 34  186 153 34  186 153 34  186 153 34  186 153 34  186 153 34  186 153 34  186 153 34  186 153 34  186 153 34  186 153 34  186 153 34  186 153 34  186 
153 34  186 153 34  186 153 34  186 153 34  186 153 34  186 153 34  186 153 34  186 153 34  186 153 34  186 153 34  186 153 34  186 153 34  186 153 34  186 153 34  186 153 34  186 153 34  186 153 34  186 153 34  186 153 34  186 153 34  186 153 34  186 153 34  186 153 34  186 153 34  186 153 34  186 153 34  186 153 34  186 153 34  186 153 34  186 153 34  186 153 34  186 153 34  186 153 34  186 153 34  186 153 34  186 153 34  186 153 34  186 153 34  186 153 34  186 153 34  186 153 34  186 153 34  186 153 34  186 153 34  186 153 34  186 153 34  186 153 34  186 153 34  186 153 34  186 153 34  186 153 34  186 153 34  186 153 34  186 153 34  186 153 34  186 153 34  186 153 34  186 153 34  186 153 34  186 153 34  186 153 34  186 153 34  186 153 34  186 153 34  186 153 34  186 153 34  186 153 34  186 153 34  186 153 34  186 153 34  186 153 34  186 153 34  186 153 34  186 153 34  186 153 34  186 153 34  186 153 34  186 153 34  186 153 34  186 153 34  186 153 34  186 153 34  186 153 34  186 153 34  186 153 34  186 153 34  186 153 34  186 153 34  186 153 34  186 153 34  186 153 34  186 153 34  186 153 34  186 153 34  186 153 34  186 153 34  186 153 34  186 153 34  186 153 34  186 
153 34  186 153 34  186 153 34  186 153 34  186 153 34  186 153 34  186 153 34  186 153 34  186 153 34  186 153 34  186 153 34  186 153 34  186 153 34  186 153 34  186 153 34  186 153 34  186 153 34  186 153 34  186 153 34  186 153 34  186 153 34  186 153 34  186 153 34  186 153 34  186 153 34  186 153 34  186 153 34  186 153 34  186 153 34  186 153 34  186 153 34  186 153 34  186 153 34  186 153 34  186 153 34  186 153 34  186 153 34  186 153 34  186 153 34  186 153 34  186 153 34  186 153 34  186 153 34  186 153 34  186 153 34  186 153 34  186 153 34  186 153 34  186 153 34  186 153 34  186 153 34  186 153 34  186 153 34  186 153 34  186 153 34  186 153 34  186 153 34  186 153 34  186 153 34  186 153 34  186 153 34  186 153 34  186 153 34  186 153 34  186 153 34  186 153 34  186 153 34  186 153 34  186 153 34  186 153 34  186 153 34  186 153 34  186 153 34  186 153 34  186 153 34  186 153 34  186 153 34  186 153 34  186 153 34  186 153 34  186 153 34  186 153 34  186 153 34  186 153 34  186 153 34  186 153 34  186 153 34  186 153 34  186 153 34  186 153 34  186 153 34  186 153 34  186 153 34  186 153 34  186 153 34  186 153 34  186 153 34  186 153 34  186 153 34  186 
153 34  186 153 34  186 153 34  186 153 34  186 153 34  186 153 34  186 153 34  186 153 34  186 153 34  186 153 34  186 153 34  186 153 34  186 153 34  186 153 34  186 153 34  186 153 34  186 153 34  186 153 34  186 153 34  186 153 34  186 153 34  186 153 34  186 153 34  186 153 34  186 153 34  186 153 34  186 153 34  186 153 34  186 153 34  186 153 34  186 153 34  186 153 34  186 153 34  186 153 34  186 153 34  186 153 34  186 153 34  186 153 34  186 153 34  186 153 34  186 153 34  186 153 34  186 153 34  186 153 34  186 153 34  186 153 34  186 153 34  186 153 34  186 153 34  186 153 34  186 153 34  186 153 34  186 153 34  186 153 34  186 153 34  186 153 34  186 153 34  186 153 34  186 153 34  186 153 34  186 153 34  186 153 34  186 153 34  186 153 34  186 153 34  186 153 34  186 153 34  186 153 34  186 153 34  186 153 34  186 153 34  186 153 34  186 153 34  186 153 34  186 153 34  186 153 34  186 153 34  186 153 34  186 153 34  186 153 34  186 153 34  186 153 34  186 153 34  186 153 34  186 153 34  186 153 34  186 153 34  186 153 34  186 153 34  186 153 34  186 153 34  186 153 34  186 153 34  186 153 34  186 153 34  186 153 34  186 153 34  186 153 34  186 153 34  186 
153 34  186 153 34  186 153 34  186 153 34  186 153 34  186 153 34  186 153 34  186 153 34  186 153 34  186 153 34  186 153 34  186 153 34  186 153 34  186 153 34  186 153 34  186 153 34  186 153 34  186 153 34  186 153 34  186 153 34  186 153 34  186 153 34  186 153 34  186 153 34  186 153 34  186 153 34  186 153 34  186 153 34  186 153 34  186 153 34  186 153 34  186 153 34  186 153 34  186 153 34  186 153 34  186 153 34  186 153 34  186 153 34  186 153 34  186 153 34  186 153 34  186 153 34  186 153 34  186 153 34  186 153 34  186 153 34  186 153 34  186 153 34  186 153 34  186 153 34  186 153 34  186 153 34  186 153 34  186 153 34  186 153 34  186 153 34  186 153 34  186 153 34  186 153 34  186 153 34  186 153 34  186 153 34  186 153 34  186 153 34  186 153 34  186 153 34  186 153 34  186 153 34  186 153 34  186 153 34  186 153 34  186 153 34  186 153 34  186 153 34  186 153 34  186 153 34  186 153 34  186 153 34  186 153 34  186 153 34  186 153 34  186 153 34  186 153 34  186 153 34  186 153 34  186 153 34  186 153 34  186 153 34  186 153 34  186 153 34  186 153 34  186 153 34  186 153 34  186 153 34  186 153 34  186 153 34  186 153 34  186 153 34  186 153 34  186 
153 34  186 153 34  186 153 34  186 153 34  186 153 34  186 153 34  186 153 34  186 153 34  186 153 34  186 153 34  186 153 34  186 153 34  186 153 34  186 153 34  186 153 34  186 153 34  186 153 34  186 153 34  186 153 34  186 153 34  186 153 34  186 153 34  186 153 34  186 153 34  186 153 34  186 153 34  186 153 34  186 153 34  186 153 34  186 153 34  186 153 34  186 153 34  186 153 34  186 153 34  186 153 34  186 153 34  186 153 34  186 153 34  186 153 34  186 153 34  186 153 34  186 153 34  186 153 34  186 153 34  186 153 34  186 153 34  186 153 34  186 153 34  186 153 34  186 153 34  186 153 34  186 153 34  186 153 34  186 153 34  186 153 34  186 153 34  186 153 34  186 153 34  186 153 34  186 153 34  186 153 34  186 153 34  186 153 34  186 153 34  186 153 34  186 153 34  186 153 34  186 153 34  186 153 34  186 153 34  186 153 34  186 153 34  186 153 34  186 153 34  186 153 34  186 153 34  186 153 34  186 153 34  186 153 34  186 153 34  186 153 34  186 153 34  186 153 34  186 153 34  186 153 34  186 153 34  186 153 34  186 153 34  186 153 34  186 153 34  186 153 34  186 153 34  186 153 34  186 153 34  186 153 34  186 153 34  186 153 34  186 153 34  186 153 34  186 
153 34  186 153 34  186 153 34  186 153 34  186 153 34  186 153 34  186 153 34  186 153 34  186 153 34  186 153 34  186 153 34  186 153 34  186 153 34  186 153 34  186 153 34  186 153 34  186 153 34  186 153 34  186 153 34  186 153 34  186 153 34  186 153 34  186 153 34  186 153 34  186 153 34  186 153 34  186 153 34  186 153 34  186 153 34  186 153 34  186 153 34  186 153 34  186 153 34  186 153 34  186 153 34  186 153 34  186 153 34  186 153 34  186 153 34  186 153 34  186 153 34  186 153 34  186 153 34  186 153 34  186 153 34  186 153 34  186 153 34  186 153 34  186 153 34  186 153 34  186 153 34  186 153 34  186 153 34  186 153 34  186 153 34  186 153 34  186 153 34  186 153 34  186 153 34  186 153 34  186 153 34  186 153 34  186 153 34  186 153 34  186 153 34  186 153 34  186 153 34  186 153 34  186 153 34  186 153 34  186 153 34  186 153 34  186 153 34  186 153 34  186 153 34  186 153 34  186 153 34  186 153 34  186 153 34  186 153 34  186 153 34  186 153 34  186 153 34  186 153 34  186 153 34  186 153 34  186 153 34  186 153 34  186 153 34  186 153 34  186 153 34  186 153 34  186 153 34  186 153 34  186 153 34  186 153 34  186 153 34  186 153 34  186 153 34  186 
153 34  186 153 34  186 153 34  186 153 34  186 153 34  186 153 34  186 153 34  186 153 34  186 153 34  186 153 34  186 153 34  186 153 34  186 153 34  186 153 34  186 153 34  186 153 34  186 153 34  186 153 34  186 153 34  186 153 34  186 153 34  186 153 34  186 153 34  186 153 34  186 153 34  186 153 34  186 153 34  186 153 34  186 153 34  186 153 34  186 153 34  186 153 34  186 153 34  186 153 34  186 153 34  186 153 34  186 153 34  186 153 34  186 153 34  186 153 34  186 153 34  186 153 34  186 153 34  186 153 34  186 153 34  186 153 34  186 153 34  186 153 34  186 153 34  186 153 34  186 153 34  186 153 34  186 153 34  186 153 34  186 153 34  186 153 34  186 153 34  186 153 34  186 153 34  186 153 34  186 153 34  186 153 34  186 153 34  186 153 34  186 153 34  186 153 34  186 153 34  186 153 34  186 153 34  186 153 34  186 153 34  186 153 34  186 153 34  186 153 34  186 153 34  186 153 34  186 153 34  186 153 34  186 153 34  186 153 34  186 153 34  186 153 34  186 153 34  186 153 34  186 153 34  186 153 34  186 153 34  186 153 34  186 153 34  186 153 34  186 153 34  186 153 34  186 153 34  186 153 34  186 153 34  186 153 34  186 153 34  186 153 34  186 153 34  186 
153 34  186 153 34  186 153 34  186 153 34  186 153 34  186 153 34  186 153 34  186 153 34  186 153 34  186 153 34  186 153 34  186 153 34  186 153 34  186 153 34  186 153 34  186 153 34  186 153 34  186 153 34  186 153 34  186 153 34  186 153 34  186 153 34  186 153 34  186 153 34  186 153 34  186 153 34  186 153 34  186 153 34  186 153 34  186 153 34  186 153 34  186 153 34  186 153 34  186 153 34  186 153 34  186 153 34  186 153 34  186 153 34  186 153 34  186 153 34  186 153 34  186 153 34  186 153 34  186 153 34  186 153 34  186 153 34  186 153 34  186 153 34  186 153 34  186 153 34  186 153 34  186 153 34  186 153 34  186 153 34  186 153 34  186 153 34  186 153 34  186 153 34  186 153 34  186 153 34  186 153 34  186 153 34  186 153 34  186 153 34  186 153 34  186 153 34  186 153 34  186 153 34  186 153 34  186 153 34  186 153 34  186 153 34  186 153 34  186 153 34  186 153 34  186 153 34  186 153 34  186 153 34  186 153 34  186 153 34  186 153 34  186 153 34  186 153 34  186 153 34  186 153 34  186 153 34  186 153 34  186 153 34  186 153 34  186 153 34  186 153 34  186 153 34  186 153 34  186 153 34  186 153 34  186 153 34  186 153 34  186 153 34  186 153 34  186 
153 34  186 153 34  186 153 34  186 153 34  186 153 34  186 153 34  186 153 34  186 153 34  186 153 34  186 153 34  186 153 34  186 153 34  186 153 34  186 153 34  186 153 34  186 153 34  186 153 34  186 153 34  186 153 34  186 153 34  186 153 34  186 153 34  186 153 34  186 153 34  186 153 34  186 153 34  186 153 34  186 153 34  186 153 34  186 153 34  186 153 34  186 153 34  186 153 34  186 153 34  186 153 34  186 153 34  186 153 34  186 153 34  186 153 34  186 153 34  186 153 34  186 153 34  186 153 34  186 153 34  186 153 34  186 153 34  186 153 34  186 153 34  186 153 34  186 153 34  186 153 34  186 153 34  186 153 34  186 153 34  186 153 34  186 153 34  186 153 34  186 153 34  186 153 34  186 153 34  186 153 34  186 153 34  186 153 34  186 153 34  186 153 34  186 153 34  186 153 34  186 153 34  186 153 34  186 153 34  186 153 34  186 153 34  186 153 34  186 153 34  186 153 34  186 153 34  186 153 34  186 153 34  186 153 34  186 153 34  186 153 34  186 153 34  186 153 34  186 153 34  186 153 34  186 153 34  186 153 34  186 153 34  186 153 34  186 153 34  186 153 34  186 153 34  186 153 34  186 153 34  186 153 34  186 153 34  186 153 34  186 153 34  186 153 34  186 
153 34  186 153 34  186 153 34  186 153 34  186 153 34  186 153 34  186 153 34  186 153 34  186 153 34  186 153 34  186 153 34  186 153 34  186 153 34  186 153 34  186 153 34  186 153 34  186 153 34  186 153 34  186 153 34  186 153 34  186 153 34  186 153 34  186 153 34  186 153 34  186 153 34  186 153 34  186 153 34  186 153 34  186 153 34  186 153 34  186 153 34  186 153 34  186 153 34  186 153 34  186 153 34  186 153 34  186 153 34  186 153 34  186 153 34  186 153 34  186 153 34  186 153 34  186 153 34  186 153 34  186 153 34  186 153 34  186 153 34  186 153 34  186 153 34  186 153 34  186 153 34  186 153 34  186 153 34  186 153 34  186 153 34  186 153 34  186 153 34  186 153 34  186 153 34  186 153 34  186 153 34  186 153 34  186 153 34  186 153 34  186 153 34  186 153 34  186 153 34  186 153 34  186 153 34  186 153 34  186 153 34  186 153 34  186 153 34  186 153 34  186 153 34  186 153 34  186 153 34  186 153 34  186 153 34  186 153 34  186 153 34  186 153 34  186 153 34  186 153 34  186 153 34  186 153 34  186 153 34  186 153 34  186 153 34  186 153 34  186 153 34  186 153 34  186 153 34  186 153 34  186 153 34  186 153 34  186 153 34  186 153 34  186 153 34  186 
153 34  186 153 34  186 153 34  186 153 34  186 153 34  186 153 34  186 153 34  186 153 34  186 153 34  186 153 34  186 153 34  186 153 34  186 153 34  186 153 34  186 153 34  186 153 34  186 153 34  186 153 34  186 153 34  186 153 34  186 153 34  186 153 34  186 153 34  186 153 34  186 153 34  186 153 34  186 153 34  186 153 34  186 153 34  186 153 34  186 153 34  186 153 34  186 153 34  186 153 34  186 153 34  186 153 34  186 153 34  186 153 34  186 153 34  186 153 34  186 153 34  186 153 34  186 153 34  186 153 34  186 153 34  186 153 34  186 153 34  186 153 34  186 153 34  186 153 34  186 153 34  186 153 34  186 153 34  186 153 34  186 153 34  186 153 34  186 153 34  186 153 34  186 153 34  186 153 34  186 153 34  186 153 34  186 153 34  186 153 34  186 153 34  186 153 34  186 153 34  186 153 34  186 153 34  186 153 34  186 153 34  186 153 34  186 153 34  186 153 34  186 153 34  186 153 34  186 153 34  186 153 34  186 153 34  186 153 34  186 153 34  186 153 34  186 153 34  186 153 34  186 153 34  186 153 34  186 153 34  186 153 34  186 153 34  186 153 34  186 153 34  186 153 34  186 153 34  186 153 34  186 153 34  186 153 34  186 153 34  186 153 34  186 153 34  186 
153 34  186 153 34  186 153 34  186 153 34  186 153 34  186 153 34  186 153 34  186 153 34  186 153 34  186 153 34  186 153 34  186 153 34  186 153 34  186 153 34  186 153 34  186 153 34  186 153 34  186 153 34  186 153 34  186 153 34  186 153 34  186 153 34  186 153 34  186 153 34  186 153 34  186 153 34  186 153 34  186 153 34  186 153 34  186 153 34  186 153 34  186 153 34  186 153 34  186 153 34  186 153 34  186 153 34  186 153 34  186 153 34  186 153 34  186 153 34  186 153 34  186 153 34  186 153 34  186 153 34  186 153 34  186 153 34  186 153 34  186 153 34  186 153 34  186 153 34  186 153 34  186 153 34  186 153 34  186 153 34  186 153 34  186 153 34  186 153 34  186 153 34  186 153 34  186 153 34  186 153 34  186 153 34  186 153 34  186 153 34  186 153 34  186 153 34  186 153 34  186 153 34  186 153 34  186 153 34  186 153 34  186 153 34  186 153 34  186 153 34  186 153 34  186 153 34  186 153 34  186 153 34  186 153 34  186 153 34  186 153 34  186 153 34  186 153 34  186 153 34  186 153 34  186 153 34  186 153 34  186 153 34  186 153 34  186 153 34  186 153 34  186 153 34  186 153 34  186 153 34  186 153 34  186 153 34  186 153 34  186 153 34  186 153 34  186 
153 34  186 153 34  186 153 34  186 153 34  186 153 34  186 153 34  186 153 34  186 153 34  186 153 34  186 153 34  186 153 34  186 153 34  186 153 34  186 153 34  186 153 34  186 153 34  186 153 34  186 153 34  186 153 34  186 153 34  186 153 34  186 153 34  186 153 34  186 153 34  186 153 34  186 153 34  186 153 34  186 153 34  186 153 34  186 153 34  186 153 34  186 153 34  186 153 34  186 153 34  186 153 34  186 153 34  186 153 34  186 153 34  186 153 34  186 153 34  186 153 34  186 153 34  186 153 34  186 153 34  186 153 34  186 153 34  186 153 34  186 153 34  186 153 34  186 153 34  186 153 34  186 153 34  186 153 34  186 153 34  186 153 34  186 153 34  186 153 34  186 153 34  186 153 34  186 153 34  186 153 34  186 153 34  186 153 34  186 153 34  186 153 34  186 153 34  186 153 34  186 153 34  186 153 34  186 153 34  186 153 34  186 153 34  186 153 34  186 153 34  186 153 34  186 153 34  186 153 34  186 153 34  186 153 34  186 153 34  186 153 34  186 153 34  186 153 34  186 153 34  186 153 34  186 153 34  186 153 34  186 153 34  186 153 34  186 153 34  186 153 34  186 153 34  186 153 34  186 153 34  186 153 34  186 153 34  186 153 34  186 153 34  186 153 34  186 
153 34  186 153 34  186 153 34  186 153 34  186 153 34  186 153 34  186 153 34  186 153 34  186 153 34  186 153 34  186 153 34  186 153 34  186 153 34  186 153 34  186 153 34  186 153 34  186 153 34  186 153 34  186 153 34  186 153 34  186 153 34  186 153 34  186 153 34  186 153 34  186 153 34  186 153 34  186 153 34  186 153 34  186 153 34  186 153 34  186 153 34  186 153 34  186 153 34  186 153 34  186 153 34  186 153 34  186 153 34  186 153 34  186 153 34  186 153 34  186 153 34  186 153 34  186 153 34  186 153 34  186 153 34  186 153 34  186 153 34  186 153 34  186 153 34  186 153 34  186 153 34  186 153 34  186 153 34  186 153 34  186 153 34  186 153 34  186 153 34  186 153 34  186 153 34  186 153 34  186 153 34  186 153 34  186 153 34  186 153 34  186 153 34  186 153 34  186 153 34  186 153 34  186 153 34  186 153 34  186 153 34  186 153 34  186 153 34  186 153 34  186 153 34  186 153 34  186 153 34  186 153 34  186 153 34  186 153 34  186 153 34  186 153 34  186 153 34  186 153 34  186 153 34  186 153 34  186 153 34  186 153 34  186 153 34  186 153 34  186 153 34  186 153 34  186 153 34  186 153 34  186 153 34  186 153 34  186 153 34  186 153 34  186 153 34  186 
153 34  188 153 34  188 153 34  188 153 34  188 153 34  188 153 34  188 153 34  188 153 34  188 153 34  188 153 34  188 153 34  188 153 34  188 153 34  188 153 34  188 153 34  188 153 34  188 153 34  188 153 34  188 153 34  188 153 34  188 153 34  188 153 34  188 153 34  188 153 34  188 153 34  188 153 34  188 153 34  188 153 34  188 153 34  188 153 34  188 153 34  188 153 34  188 153 34  188 153 34  188 153 34  188 153 34  188 153 34  188 153 34  188 153 34  188 153 34  188 153 34  188 153 34  188 153 34  188 153 34  188 153 34  188 153 34  188 153 34  188 153 34  188 153 34  188 153 34  188 153 34  188 153 34  188 153 34  188 153 34  188 153 34  188 153 34  188 153 34  188 153 34  188 153 34  188 153 34  188 153 34  188 153 34  188 153 34  188 153 34  188 153 34  188 153 34  188 153 34  188 153 34  188 153 34  188 153 34  188 153 34  188 153 34  188 153 34  188 153 34  188 153 34  188 153 34  188 153 34  188 153 34  188 153 34  188 153 34  188 153 34  188 153 34  188 153 34  188 153 34  188 153 34  188 153 34  188 153 34  188 153 34  188 153 34  188 153 34  188 153 34  188 153 34  188 153 34  188 153 34  188 153 34  188 153 34  188 153 34  188 153 34  188 153 34  188 
